<?xml version="1.0" encoding="UTF-8"?>
<svg width="200" height="80" viewBox="0 0 200 80" xmlns="http://www.w3.org/2000/svg">
  <rect x="10" y="10" width="2" height="60" fill="black" />
  <rect x="16" y="10" width="1" height="60" fill="black" />
  <rect x="20" y="10" width="4" height="60" fill="black" />
  <rect x="28" y="10" width="2" height="60" fill="black" />
  <rect x="34" y="10" width="6" height="60" fill="black" />
  <rect x="44" y="10" width="1" height="60" fill="black" />
  <rect x="48" y="10" width="3" height="60" fill="black" />
  <rect x="55" y="10" width="5" height="60" fill="black" />
  <rect x="64" y="10" width="2" height="60" fill="black" />
  <rect x="70" y="10" width="3" height="60" fill="black" />
  <rect x="78" y="10" width="6" height="60" fill="black" />
  <rect x="88" y="10" width="2" height="60" fill="black" />
  <rect x="94" y="10" width="1" height="60" fill="black" />
  <rect x="98" y="10" width="4" height="60" fill="black" />
  <rect x="106" y="10" width="2" height="60" fill="black" />
  <rect x="112" y="10" width="6" height="60" fill="black" />
  <rect x="122" y="10" width="1" height="60" fill="black" />
  <rect x="126" y="10" width="3" height="60" fill="black" />
  <rect x="133" y="10" width="5" height="60" fill="black" />
  <rect x="142" y="10" width="2" height="60" fill="black" />
  <rect x="148" y="10" width="3" height="60" fill="black" />
  <rect x="156" y="10" width="6" height="60" fill="black" />
  <rect x="166" y="10" width="2" height="60" fill="black" />
  <rect x="172" y="10" width="4" height="60" fill="black" />
  <rect x="180" y="10" width="2" height="60" fill="black" />
  <text x="100" y="75" font-family="monospace" font-size="7" text-anchor="middle">31498753</text>
</svg>
