<?xml version="1.0" encoding="UTF-8" standalone="no"?>
<svg xmlns="http://www.w3.org/2000/svg" viewBox="0 0 500 500">
  <g fill="#172A3A">
    <!-- Bear Head -->
    <path d="M250,100 C190,100 140,150 140,210 C140,270 190,320 250,320 C310,320 360,270 360,210 C360,150 310,100 250,100 Z M180,180 C190,170 205,170 215,180 C225,190 225,205 215,215 C205,225 190,225 180,215 C170,205 170,190 180,180 Z M285,180 C295,170 310,170 320,180 C330,190 330,205 320,215 C310,225 295,225 285,215 C275,205 275,190 285,180 Z M230,240 C240,250 260,250 270,240 C275,235 275,225 270,220 C260,210 240,210 230,220 C225,225 225,235 230,240 Z"/>
    
    <!-- Sunglasses -->
    <path d="M180,190 C175,185 170,185 165,190 C160,195 160,205 165,210 C170,215 175,215 180,210 C185,205 185,195 180,190 Z M320,190 C315,185 310,185 305,190 C300,195 300,205 305,210 C310,215 315,215 320,210 C325,205 325,195 320,190 Z M175,200 L305,200" stroke="#172A3A" stroke-width="8" fill="none"/>
    
    <!-- Cigar -->
    <path d="M210,260 L310,260" stroke="#172A3A" stroke-width="6" fill="none"/>
    <path d="M310,260 L330,260" stroke="#172A3A" stroke-width="4" fill="none"/>
    <path d="M330,260 L350,260" stroke="#172A3A" stroke-width="2" fill="none"/>
    
    <!-- Suit -->
    <path d="M200,320 L170,420 L210,420 L250,390 L290,420 L330,420 L300,320 C283,330 267,335 250,335 C233,335 217,330 200,320 Z"/>
    
    <!-- Shirt & Tie -->
    <path d="M220,320 L250,380 L280,320" fill="white"/>
    <path d="M240,320 L250,340 L260,320" fill="white"/>
    
    <!-- C letter -->
    <circle cx="290" cy="380" r="15" fill="white"/>
    <path d="M290,370 C280,370 275,380 280,390" stroke="white" stroke-width="5" fill="none"/>
  </g>
</svg>
