<?xml version="1.0" standalone="no"?>
<!DOCTYPE svg PUBLIC "-//W3C//DTD SVG 20010904//EN"
 "http://www.w3.org/TR/2001/REC-SVG-20010904/DTD/svg10.dtd">
<svg version="1.0" xmlns="http://www.w3.org/2000/svg"
 width="1024.000000pt" height="1024.000000pt" viewBox="0 0 1024.000000 1024.000000"
 preserveAspectRatio="xMidYMid meet">
<metadata>
Created by potrace 1.16, written by Peter Selinger 2001-2019
</metadata>
<g transform="translate(0.000000,1024.000000) scale(0.100000,-0.100000)"
fill="#d4af37" stroke="none">
<path d="M3379 9495 c-216 -53 -387 -208 -467 -424 -29 -78 -41 -260 -23 -354
32 -172 158 -361 304 -456 34 -23 65 -42 70 -44 4 -1 -22 -52 -58 -112 -166
-278 -295 -615 -295 -772 0 -48 2 -53 23 -53 12 0 31 7 41 15 32 24 34 18 19
-52 -32 -157 -32 -423 2 -553 32 -122 61 -150 88 -83 l14 37 36 -74 c20 -40
55 -101 78 -136 l40 -63 -43 -53 c-24 -30 -61 -78 -83 -106 -35 -46 -57 -61
-175 -121 -74 -38 -337 -162 -585 -276 -247 -114 -533 -249 -635 -300 -102
-51 -208 -101 -236 -110 -149 -47 -272 -303 -410 -847 -127 -506 -326 -1590
-307 -1680 3 -15 12 -33 21 -40 12 -10 377 -13 1864 -13 l1849 -1 -7 61 c-29
290 -186 994 -338 1520 -19 66 -33 121 -31 123 1 2 57 -35 122 -81 439 -313
881 -551 1243 -670 182 -60 167 -62 298 43 138 111 266 240 385 385 91 111
257 352 257 374 0 6 4 11 9 11 9 0 13 -22 36 -225 46 -409 73 -816 82 -1225
l6 -315 1223 0 c885 1 1227 4 1235 12 21 21 11 77 -70 403 -176 711 -352 1272
-538 1714 -113 268 -208 431 -307 524 -60 56 -80 67 -171 86 -33 7 -122 41
-199 75 -76 34 -231 100 -345 147 -288 120 -604 256 -614 264 -5 4 25 53 67
109 41 56 79 108 84 117 7 13 43 17 208 25 109 4 269 8 354 9 190 1 261 10
340 46 73 32 121 85 150 161 25 68 25 124 -1 208 -25 82 -70 134 -147 172 -84
41 -202 38 -419 -11 -89 -20 -166 -36 -171 -36 -5 0 -12 42 -16 93 -14 199
-48 323 -143 515 l-65 132 21 49 c31 72 51 167 51 243 l0 66 40 7 41 7 -3 71
-3 72 -52 10 c-50 10 -54 13 -88 70 -19 33 -49 72 -64 87 l-29 26 39 28 c106
73 201 219 234 356 69 290 -30 544 -252 649 -57 27 -72 39 -77 60 -14 72 -295
98 -476 44 -132 -40 -267 -141 -316 -238 -9 -18 -18 -33 -19 -35 -2 -2 -16 3
-32 12 -57 29 -263 95 -379 121 -493 110 -1006 74 -1449 -102 l-89 -36 -16 24
c-68 104 -187 210 -298 264 -123 60 -304 81 -433 50z m232 -175 c166 -31 305
-148 402 -338 52 -100 60 -111 77 -102 28 15 60 60 60 85 0 25 61 57 210 107
233 80 444 112 730 112 243 0 387 -16 575 -64 307 -77 584 -231 757 -419 93
-101 205 -261 222 -318 l7 -21 -521 -1 c-492 -2 -520 -1 -520 16 0 30 -56 136
-86 164 -47 44 -146 109 -155 103 -5 -3 11 -28 35 -56 51 -58 95 -135 106
-184 l8 -34 -449 0 c-372 0 -463 -3 -527 -16 -99 -20 -173 -56 -230 -110 l-45
-44 -389 -2 c-213 -2 -388 -1 -388 1 0 2 21 38 47 80 57 92 128 169 195 212
64 41 58 61 -25 74 -38 6 -38 7 -21 26 9 10 57 46 105 79 49 34 89 68 89 76 0
21 -77 138 -129 196 -71 80 -237 176 -261 152 -6 -6 -3 -30 9 -64 11 -30 18
-56 16 -58 -2 -2 -12 1 -23 7 -12 6 -37 11 -58 11 -78 0 -149 -120 -147 -247
2 -88 35 -155 111 -223 l60 -55 -40 -57 c-45 -64 -41 -64 -123 -8 -142 98
-235 271 -235 440 0 305 263 534 551 480z m3129 -37 c0 -4 -10 -17 -21 -30
-35 -37 -12 -53 75 -53 177 0 276 -121 276 -334 0 -143 -39 -246 -132 -351
-52 -58 -139 -117 -145 -98 -2 5 -12 27 -23 48 l-19 38 29 34 c50 56 102 170
107 235 6 55 4 59 -29 92 -21 21 -49 37 -71 41 l-37 7 35 39 c19 22 35 43 35
48 0 19 -45 41 -85 41 -89 0 -186 -40 -250 -101 l-41 -39 -49 33 c-28 18 -76
48 -107 66 -32 18 -58 36 -58 40 0 16 59 88 105 129 52 46 148 96 211 111 46
11 194 14 194 4z m-747 -1043 l39 0 -58 -54 -57 -55 -61 16 c-63 16 -224 13
-290 -5 -26 -7 -34 -3 -71 34 -23 23 -62 49 -86 58 -42 15 -31 16 251 11 162
-3 312 -5 333 -5z m-140 -212 c16 -11 30 -38 45 -91 28 -97 44 -111 310 -276
76 -46 236 -170 230 -177 -2 -1 -37 9 -78 23 -63 22 -98 27 -220 31 -228 7
-360 -29 -462 -128 -53 -51 -58 -72 -36 -158 9 -35 25 -60 68 -102 109 -108
215 -191 288 -227 l73 -37 -6 -75 c-11 -129 -23 -136 -315 -201 -275 -62 -442
-134 -471 -201 -16 -40 -7 -79 23 -102 l27 -20 48 35 c98 72 263 137 416 164
95 16 310 19 387 4 61 -12 143 -47 180 -78 l25 -20 -30 -32 c-53 -56 -71 -61
-150 -39 -86 24 -261 26 -353 4 -102 -24 -202 -83 -202 -118 0 -18 9 -19 275
-13 179 4 282 3 294 -4 31 -16 54 -91 49 -154 -7 -80 -63 -188 -134 -256 l-57
-55 7 35 c11 54 19 160 14 160 -3 0 -43 -38 -89 -85 -45 -47 -106 -101 -134
-121 l-52 -35 -82 30 c-101 37 -173 77 -316 175 -60 41 -111 73 -113 71 -2 -2
6 -36 17 -76 11 -40 20 -74 18 -75 -1 -1 -31 18 -67 41 -129 86 -272 249 -366
417 -27 49 -53 88 -58 88 -16 0 0 -212 21 -273 l20 -59 -35 7 c-38 7 -179 74
-253 120 -92 58 -210 158 -303 257 -92 99 -96 102 -96 72 0 -41 44 -193 76
-263 13 -30 22 -56 20 -59 -8 -7 -115 46 -185 92 -115 77 -231 207 -360 401
l-46 70 -3 -75 c-3 -65 7 -165 25 -265 l6 -30 -32 30 c-95 88 -191 234 -231
350 -33 95 -53 282 -45 413 4 71 3 112 -3 112 -15 0 -132 -170 -174 -253 l-37
-72 -3 65 c-9 184 22 379 91 585 17 50 31 93 31 98 0 17 -24 4 -68 -36 -76
-70 -132 -110 -132 -95 0 49 173 384 244 473 l22 28 165 -12 c200 -14 401 -28
532 -37 l97 -6 0 -84 c0 -313 165 -545 436 -614 104 -27 208 -24 309 6 19 6
19 6 4 -12 -30 -34 -80 -145 -101 -223 -14 -53 -22 -121 -25 -229 -7 -180 5
-213 31 -90 62 289 177 501 426 788 142 164 186 234 235 373 42 121 43 122 81
134 54 18 225 11 257 -9z m1092 -617 c52 -104 105 -312 105 -416 l0 -30 -38
41 c-20 22 -47 49 -60 59 l-22 18 2 -109 c1 -134 -6 -172 -35 -179 -28 -6
-192 -35 -198 -35 -2 0 -4 62 -5 138 -1 163 -30 326 -79 445 -6 15 -1 17 38
17 60 0 161 32 217 69 25 16 46 30 47 30 2 1 14 -21 28 -48z m-951 -213 c21
-30 21 -78 1 -78 -22 0 -67 24 -88 48 -17 18 -17 21 -2 36 24 24 71 20 89 -6z
m416 -7 c0 -18 -74 -71 -99 -71 -15 0 -14 53 2 72 20 28 97 27 97 -1z m135
-127 c17 -97 19 -203 4 -294 l-12 -69 -76 -26 c-95 -31 -182 -33 -228 -5 -39
24 -45 43 -41 143 l3 79 52 18 c77 27 133 70 208 160 37 45 69 79 72 77 2 -3
11 -40 18 -83z m1100 -324 c-32 -64 -34 -152 -5 -210 l20 -40 -40 0 c-36 0
-41 3 -55 36 -25 61 -29 134 -11 197 15 51 19 56 49 60 73 9 70 12 42 -43z
m-210 -30 c-8 -23 -15 -64 -15 -90 0 -26 7 -67 15 -90 8 -24 14 -45 12 -46 -2
-2 -42 -7 -89 -10 -76 -6 -86 -5 -92 11 -14 38 -16 132 -4 185 l13 55 85 16
c47 9 86 15 88 14 1 -1 -5 -21 -13 -45z m-270 -27 c-13 -32 -18 -161 -7 -192
6 -17 8 -31 4 -31 -4 0 -17 -3 -28 -6 -18 -5 -24 0 -33 28 -5 18 -12 53 -15
76 -2 24 -7 46 -10 50 -4 3 -133 -16 -289 -41 -155 -26 -287 -47 -294 -47 -8
0 -7 9 4 28 16 28 24 30 212 66 108 20 250 48 316 61 152 29 149 29 140 8z
m-455 -419 c0 -3 -27 -39 -60 -79 -44 -53 -77 -81 -122 -105 -61 -33 -61 -33
-55 -9 4 13 14 61 24 106 l17 82 45 4 c84 6 151 7 151 1z m-3087 -186 c198
-157 523 -324 998 -512 364 -144 431 -174 477 -219 50 -48 122 -149 192 -270
l63 -109 -18 -133 c-17 -125 -16 -198 1 -263 l7 -24 -43 22 c-173 88 -486 311
-475 338 14 37 131 225 142 229 7 3 69 -39 139 -92 69 -53 128 -95 130 -93 5
6 -87 183 -142 273 -64 107 -145 140 -233 96 -51 -27 -79 -66 -176 -251 -111
-209 -139 -260 -145 -260 -9 0 -175 136 -325 264 -193 166 -461 421 -501 475
-38 53 -172 309 -204 391 -28 75 -70 236 -70 272 l0 30 66 -61 c36 -34 89 -80
117 -103z m-548 -226 c-14 -56 -52 -191 -85 -300 -33 -108 -60 -202 -60 -207
0 -6 99 -60 220 -120 147 -73 220 -115 220 -125 0 -16 -103 -108 -255 -230
-44 -35 -84 -67 -89 -71 -9 -8 53 -125 329 -629 301 -549 575 -1072 615 -1173
4 -12 18 -47 30 -77 33 -84 9 -52 -167 225 -264 414 -546 894 -815 1385 -119
217 -150 280 -145 294 3 7 77 69 166 137 88 68 160 126 160 129 1 3 -78 39
-175 80 -219 92 -237 103 -228 133 29 92 290 664 300 655 1 -2 -8 -49 -21
-106z m3678 -31 c93 -66 235 -191 347 -305 l75 -77 -65 -62 c-36 -34 -87 -82
-114 -106 -27 -25 -45 -46 -40 -48 5 -2 83 -43 174 -91 200 -107 215 -122 205
-222 -44 -455 -112 -878 -210 -1321 -57 -254 -132 -538 -159 -599 l-15 -35 -1
35 c0 19 16 117 35 217 48 251 78 432 130 780 51 343 125 902 125 944 0 31
-18 44 -259 189 -68 41 -139 89 -158 105 l-36 31 117 98 c64 54 116 101 116
105 0 13 -215 265 -314 369 -28 28 -47 52 -43 52 4 0 44 -27 90 -59z m-443
-506 c-17 -172 -46 -335 -59 -335 -4 0 -42 63 -84 139 -84 151 -132 205 -192
217 -63 11 -107 -17 -164 -105 -64 -101 -155 -271 -148 -278 3 -3 59 38 124
91 64 53 121 96 124 96 4 0 24 -27 44 -61 l37 -60 -58 -97 c-108 -177 -244
-348 -342 -428 -51 -41 -53 -42 -84 -29 -27 11 -35 22 -45 62 -20 77 -17 230
7 297 48 141 170 330 315 490 61 67 85 85 191 141 148 79 225 135 290 209 l49
57 3 -148 c2 -81 -2 -197 -8 -258z m-4497 -67 c342 -257 561 -674 642 -1223
16 -109 33 -385 22 -375 -2 3 -12 55 -22 115 -50 331 -193 755 -347 1030 -106
190 -196 313 -327 448 -36 37 -62 67 -58 67 5 0 45 -28 90 -62z m6217 -35 c95
-263 128 -543 114 -953 -7 -210 -16 -228 -28 -60 -13 180 -56 655 -67 735 -13
104 -45 302 -54 338 -14 56 4 24 35 -60z m-3937 -241 c64 -57 117 -106 117
-109 0 -4 -68 -124 -75 -131 -1 -1 -23 15 -49 35 -44 36 -52 50 -116 206 l-68
167 37 -32 c20 -17 89 -79 154 -136z m2286 -190 c-56 -104 -146 -242 -158
-242 -5 0 -11 6 -14 13 -2 7 -39 58 -81 114 l-76 103 34 55 34 56 21 -34 c33
-54 154 -160 165 -145 11 12 88 152 98 175 11 27 12 27 16 5 2 -14 -13 -53
-39 -100z m-2058 -8 c19 -14 40 -29 47 -33 9 -5 5 -21 -19 -64 -16 -31 -34
-59 -40 -62 -11 -7 -99 52 -99 66 0 5 10 26 23 47 13 20 26 45 30 55 9 23 17
22 58 -9z m350 -199 c-47 -79 -90 -144 -96 -145 -12 0 -195 121 -195 130 0 3
14 32 31 64 30 55 32 56 53 42 74 -53 79 -54 127 -37 35 13 52 28 82 75 l39
58 23 -22 22 -21 -86 -144z m1422 11 c42 -63 77 -117 77 -120 0 -7 -56 -86
-63 -89 -4 -2 -134 178 -162 223 -6 9 54 100 65 100 4 0 41 -51 83 -114z
m-1198 36 c28 -20 52 -37 53 -38 3 -2 -159 -254 -174 -273 -2 -2 -24 7 -48 20
-84 44 -82 37 -28 125 27 44 66 109 86 147 24 42 42 65 49 60 7 -3 35 -22 62
-41z m1051 -154 c25 -40 59 -93 75 -116 l30 -44 -42 -54 c-23 -30 -43 -54 -45
-54 -6 0 -154 226 -154 235 0 10 74 104 83 105 4 0 28 -33 53 -72z m-791 -26
c-11 -30 -159 -262 -168 -262 -16 0 -137 71 -137 81 0 5 39 67 86 138 l86 129
69 -36 c43 -23 67 -42 64 -50z m183 -181 c-91 -169 -109 -201 -116 -201 -4 1
-40 18 -79 38 l-73 37 81 137 80 137 74 -36 74 -37 -41 -75z m489 -2 l80 -115
-41 -46 c-54 -59 -155 -152 -160 -147 -3 2 -12 47 -21 99 -30 174 -35 190 -56
190 -11 0 -22 -7 -26 -16 -3 -9 1 -84 10 -167 9 -83 15 -152 12 -155 -5 -5
-294 106 -308 117 -5 5 118 255 137 278 1 1 30 -7 64 -19 l63 -21 69 47 c37
26 74 54 81 62 6 8 13 13 14 12 1 -2 38 -55 82 -119z m2002 -136 c20 -14 51
-40 69 -56 l32 -31 0 -122 0 -122 -27 -6 c-16 -3 -51 -8 -79 -11 l-51 -6 -6
38 c-4 21 -7 55 -7 76 0 25 -5 40 -16 44 -22 8 -285 -26 -301 -39 -17 -14 -16
-59 2 -198 8 -63 21 -184 29 -269 10 -106 19 -158 29 -169 13 -12 32 -13 139
-2 67 7 129 17 136 22 8 7 12 39 12 93 l0 82 53 7 c28 3 69 6 90 6 l37 0 0
-106 0 -107 -61 -98 c-37 -61 -67 -99 -77 -99 -10 0 -67 -5 -127 -10 -61 -5
-141 -10 -180 -11 l-70 -2 -62 69 c-38 42 -65 81 -68 99 -3 17 -13 149 -24
295 -19 263 -19 264 1 399 17 110 26 143 50 180 l29 46 157 16 c234 24 249 24
291 -8z"/>
<path d="M5550 4770 c-25 -25 -26 -72 -2 -93 42 -39 115 -8 115 48 0 58 -72
86 -113 45z"/>
<path d="M1166 2514 c-200 -39 -335 -181 -366 -382 -18 -117 -8 -720 13 -795
64 -222 244 -346 504 -347 138 0 237 35 323 116 l48 45 9 -63 8 -63 90 0 90 0
0 400 0 400 -245 3 c-135 1 -255 0 -267 -3 -22 -5 -23 -10 -23 -94 0 -49 3
-102 6 -119 l6 -31 87 -3 86 -3 0 -111 c0 -98 -3 -115 -20 -134 -37 -41 -75
-54 -160 -55 -69 0 -85 3 -114 24 -68 49 -71 67 -71 460 0 374 1 388 50 439
32 33 62 42 146 42 82 0 126 -16 145 -53 7 -12 15 -62 18 -112 l6 -90 180 0
180 0 -3 90 c-6 157 -32 231 -113 319 -60 66 -123 100 -221 120 -95 20 -295
20 -392 0z"/>
<path d="M2342 2498 c-23 -23 -13 -66 24 -108 l36 -39 -147 -538 c-81 -296
-156 -561 -166 -590 -13 -33 -32 -61 -54 -78 -29 -22 -35 -32 -35 -64 0 -21 6
-43 13 -49 8 -7 97 -11 244 -12 221 0 233 0 243 19 18 35 11 68 -25 111 -39
47 -41 63 -17 135 l17 50 197 3 c225 3 212 8 224 -91 6 -52 5 -58 -25 -94 -36
-43 -44 -116 -15 -127 31 -12 469 -7 482 6 7 7 12 28 12 46 0 27 -10 45 -44
82 -30 32 -49 64 -59 101 -15 51 -179 646 -289 1049 -28 102 -56 188 -62 192
-20 14 -541 9 -554 -4z m397 -619 c33 -130 61 -243 61 -252 0 -15 -15 -17
-125 -17 -119 0 -125 1 -125 20 0 37 118 497 125 488 1 -2 30 -109 64 -239z"/>
<path d="M3440 2489 c-16 -28 -5 -66 31 -106 l29 -34 1 -527 c1 -692 4 -628
-37 -681 -37 -48 -43 -81 -18 -105 14 -14 48 -16 257 -14 l242 3 3 44 c3 40
-1 48 -38 86 l-41 41 -1 150 c-1 82 0 171 0 197 l2 48 77 -3 77 -3 92 -260
c51 -143 98 -270 103 -282 10 -23 13 -23 214 -23 145 0 206 3 215 12 7 7 12
28 12 48 0 30 -7 42 -45 73 -51 43 -57 54 -171 302 -72 157 -81 181 -67 190
163 102 201 170 210 370 10 232 -58 370 -221 446 -90 42 -164 49 -558 49 -352
0 -357 0 -368 -21z m720 -274 c44 -23 64 -87 58 -188 -6 -87 -24 -139 -55
-153 -10 -5 -80 -11 -155 -14 l-137 -5 -3 188 -3 187 133 0 c98 0 141 -4 162
-15z"/>
<path d="M4632 2498 c-25 -25 -13 -66 32 -110 50 -50 52 -53 277 -483 l173
-330 4 -160 c4 -204 2 -216 -56 -270 -45 -42 -46 -44 -36 -82 l9 -38 255 -3
c231 -2 256 -1 268 15 24 33 14 64 -33 106 l-45 41 0 201 c0 110 4 205 9 210
4 6 57 105 116 220 248 483 278 539 317 575 44 42 52 92 19 110 -12 6 -110 10
-250 10 l-231 0 -15 -24 c-19 -28 -8 -67 32 -108 l27 -28 -86 -177 c-47 -98
-91 -195 -98 -215 -6 -21 -13 -38 -14 -38 -2 0 -11 21 -21 48 -9 26 -53 123
-97 215 l-80 169 36 37 c28 28 36 45 36 73 0 23 -5 38 -16 42 -9 3 -129 6
-268 6 -183 0 -255 -3 -264 -12z"/>
<path d="M6802 2498 c-18 -18 -15 -62 7 -89 45 -58 45 -53 -23 -291 -36 -123
-103 -363 -150 -534 -107 -389 -108 -391 -156 -435 -32 -29 -40 -44 -40 -71 0
-19 5 -39 12 -46 17 -17 469 -17 486 0 23 23 14 78 -19 116 -29 32 -31 40 -26
86 3 28 10 63 16 79 l11 27 194 0 c224 0 213 5 223 -96 6 -52 4 -57 -28 -90
-27 -28 -34 -43 -34 -75 0 -24 6 -44 15 -49 16 -11 458 -14 484 -4 11 4 16 19
16 50 0 37 -5 47 -35 71 -22 18 -40 44 -50 73 -12 37 -190 684 -317 1150 -18
63 -36 121 -41 128 -13 17 -527 18 -545 0z m384 -633 c34 -134 59 -246 56
-249 -3 -4 -61 -6 -129 -6 -105 0 -123 2 -123 16 0 24 123 484 129 484 3 0 34
-110 67 -245z"/>
<path d="M8402 2498 c-18 -18 -14 -66 7 -84 10 -9 33 -29 50 -44 l31 -28 0
-572 0 -573 -50 -45 c-41 -37 -50 -51 -50 -78 0 -23 6 -37 19 -44 26 -14 486
-14 512 0 36 20 25 70 -26 120 l-45 44 0 576 c0 624 -3 588 58 629 25 17 32
29 32 55 0 17 -5 37 -12 44 -17 17 -509 17 -526 0z"/>
<path d="M9201 1360 c-109 -26 -163 -148 -111 -254 79 -163 330 -99 330 84 0
114 -106 197 -219 170z"/>
<path d="M8005 1344 c-67 -35 -95 -82 -95 -160 0 -117 109 -196 225 -164 55
15 111 73 121 125 15 81 -22 167 -86 200 -38 20 -127 19 -165 -1z"/>
</g>
</svg>
