<?xml version="1.0" encoding="UTF-8" standalone="no"?>
<svg width="300" height="300" viewBox="0 0 300 300" xmlns="http://www.w3.org/2000/svg">
  <g fill="#b8953f" fill-opacity="0.2">
    <!-- Horizontal Lines -->
    <path d="M0,25 L300,25" stroke="#b8953f" stroke-width="0.5" stroke-opacity="0.2"/>
    <path d="M0,75 L300,75" stroke="#b8953f" stroke-width="0.5" stroke-opacity="0.2"/>
    <path d="M0,125 L300,125" stroke="#b8953f" stroke-width="0.5" stroke-opacity="0.2"/>
    <path d="M0,175 L300,175" stroke="#b8953f" stroke-width="0.5" stroke-opacity="0.2"/>
    <path d="M0,225 L300,225" stroke="#b8953f" stroke-width="0.5" stroke-opacity="0.2"/>
    <path d="M0,275 L300,275" stroke="#b8953f" stroke-width="0.5" stroke-opacity="0.2"/>
    
    <!-- Vertical Lines -->
    <path d="M25,0 L25,300" stroke="#b8953f" stroke-width="0.5" stroke-opacity="0.2"/>
    <path d="M75,0 L75,300" stroke="#b8953f" stroke-width="0.5" stroke-opacity="0.2"/>
    <path d="M125,0 L125,300" stroke="#b8953f" stroke-width="0.5" stroke-opacity="0.2"/>
    <path d="M175,0 L175,300" stroke="#b8953f" stroke-width="0.5" stroke-opacity="0.2"/>
    <path d="M225,0 L225,300" stroke="#b8953f" stroke-width="0.5" stroke-opacity="0.2"/>
    <path d="M275,0 L275,300" stroke="#b8953f" stroke-width="0.5" stroke-opacity="0.2"/>
    
    <!-- Circuit Elements -->
    <circle cx="25" cy="25" r="3"/>
    <circle cx="75" cy="75" r="3"/>
    <circle cx="125" cy="125" r="3"/>
    <circle cx="175" cy="175" r="3"/>
    <circle cx="225" cy="225" r="3"/>
    <circle cx="275" cy="275" r="3"/>
    
    <circle cx="25" cy="175" r="3"/>
    <circle cx="75" cy="225" r="3"/>
    <circle cx="125" cy="275" r="3"/>
    <circle cx="175" cy="25" r="3"/>
    <circle cx="225" cy="75" r="3"/>
    <circle cx="275" cy="125" r="3"/>
    
    <!-- Connecting Lines -->
    <path d="M25,25 L75,75" stroke="#b8953f" stroke-width="1" stroke-opacity="0.2"/>
    <path d="M125,125 L175,175" stroke="#b8953f" stroke-width="1" stroke-opacity="0.2"/>
    <path d="M225,225 L275,275" stroke="#b8953f" stroke-width="1" stroke-opacity="0.2"/>
    
    <path d="M25,175 L75,225" stroke="#b8953f" stroke-width="1" stroke-opacity="0.2"/>
    <path d="M125,275 L175,25" stroke="#b8953f" stroke-width="1" stroke-opacity="0.2"/>
    <path d="M225,75 L275,125" stroke="#b8953f" stroke-width="1" stroke-opacity="0.2"/>
    
    <!-- More Circuit Elements -->
    <rect x="47" y="47" width="6" height="6"/>
    <rect x="97" y="97" width="6" height="6"/>
    <rect x="147" y="147" width="6" height="6"/>
    <rect x="197" y="197" width="6" height="6"/>
    <rect x="247" y="247" width="6" height="6"/>
    
    <rect x="47" y="197" width="6" height="6"/>
    <rect x="97" y="247" width="6" height="6"/>
    <rect x="147" y="47" width="6" height="6"/>
    <rect x="197" y="97" width="6" height="6"/>
    <rect x="247" y="147" width="6" height="6"/>
  </g>
</svg>
