<?xml version="1.0" encoding="UTF-8" standalone="no"?>
<svg xmlns="http://www.w3.org/2000/svg" width="512" height="512" viewBox="0 0 512 512">
  <defs>
    <style type="text/css">
      /* Pinned tab icons are treated as masks; keep shapes solid */
      .fill { fill: #000000; }
    </style>
  </defs>
  <rect class="fill" x="0" y="0" width="512" height="512" rx="96" ry="96"/>
  <path class="fill" d="M256 112c-79.5 0-144 64.5-144 144s64.5 144 144 144c59.7 0 111.1-36.7 132.1-89.1 4.1-10.4-0.9-22.1-11.2-26.3-10.4-4.1-22.1 0.9-26.3 11.2C334.5 332.1 298 360 256 360c-57.4 0-104-46.6-104-104s46.6-104 104-104c40.4 0 75.4 23 92.7 56.6H288c-11 0-20 9-20 20s9 20 20 20h104c11 0 20-9 20-20V152c0-11-9-20-20-20s-20 9-20 20v10.4C349.2 128.7 305.1 112 256 112z"/>
</svg>

